<svg width="14" height="14" viewBox="0 0 14 14" fill="none" xmlns="http://www.w3.org/2000/svg">
<path d="M12.8058 3.56255L11.3516 2.10422C11.3274 2.07997 11.2987 2.06072 11.2671 2.0476C11.2354 2.03447 11.2015 2.02771 11.1673 2.02771C11.133 2.02771 11.0991 2.03447 11.0675 2.0476C11.0358 2.06072 11.0071 2.07997 10.9829 2.10422L4.84122 8.25005C4.81703 8.2743 4.78829 8.29354 4.75665 8.30667C4.72502 8.3198 4.6911 8.32656 4.65685 8.32656C4.62259 8.32656 4.58867 8.3198 4.55704 8.30667C4.5254 8.29354 4.49666 8.2743 4.47247 8.25005L3.0183 6.79172C2.99411 6.76747 2.96538 6.74822 2.93374 6.7351C2.9021 6.72197 2.86818 6.71521 2.83393 6.71521C2.79968 6.71521 2.76576 6.72197 2.73412 6.7351C2.70248 6.74822 2.67374 6.76747 2.64955 6.79172L1.19539 8.25005C1.14657 8.29889 1.11914 8.36511 1.11914 8.43417C1.11914 8.50322 1.14657 8.56944 1.19539 8.61828L4.47247 11.8959C4.49666 11.9201 4.5254 11.9394 4.55704 11.9525C4.58867 11.9656 4.62259 11.9724 4.65685 11.9724C4.6911 11.9724 4.72502 11.9656 4.75665 11.9525C4.78829 11.9394 4.81703 11.9201 4.84122 11.8959L12.8058 3.92713C12.8535 3.87845 12.8802 3.81301 12.8802 3.74484C12.8802 3.67668 12.8535 3.61123 12.8058 3.56255Z" fill="white"/>
</svg>
